Sample of Episode 1:

General
Complete name                    : Tuerkisch.fuer.Anfaenger.-.S01E01.-.Die.in.der.ich.meine.Freiheit.verliere.-.DVDRip.by.KHPP.avi
Format                           : AVI
Format/Info                      : Audio Video Interleave
File size                        : 370 MiB
Duration                         : 24mn 28s
Overall bit rate                 : 2 116 Kbps
Writing application              : VirtualDubMod 1.5.4.1 (build 2178/release)
Writing library                  : VirtualDubMod build 2178/release

Video
ID                               : 0
Format                           : MPEG-4 Visual
Format profile                   : AdvancedSimple@L5
Format settings, BVOP            : Yes
Format settings, QPel            : No
Format settings, GMC             : No warppoints
Format settings, Matrix          : Custom
Codec ID                         : XVID
Codec ID/Hint                    : XviD
Duration                         : 24mn 28s
Bit rate                         : 1 885 Kbps
Width                            : 720 pixels
Height                           : 400 pixels
Display aspect ratio             : 16:9
Frame rate                       : 25.000 fps
Resolution                       : 24 bits
Colorimetry                      : 4:2:0
Scan type                        : Progressive
Bits/(Pixel*Frame)               : 0.262
Stream size                      : 330 MiB (89%)
Writing library                  : XviD 1.1.0 (UTC 2005-11-22)

Audio
ID                               : 1
Format                           : AC-3
Format/Info                      : Audio Coding 3
Codec ID                         : 2000
Duration                         : 24mn 28s
Bit rate mode                    : Constant
Bit rate                         : 224 Kbps
Channel(s)                       : 2 channels
Channel positions                : L R
Sampling rate                    : 48.0 KHz
Stream size                      : 39.2 MiB (11%)
Alignment                        : Split accross interleaves
Interleave, duration             : 96 ms (2.40 video frames)
Interleave, preload duration     : 96 ms
Language                         : German




-----------------

PLOT


Lena's life seemed to be perfect the way it was: The 16-year old girl used to live just with her little brother Nils (13) and her mother Doris, a psychotherapist. But unfortunately for Lena, her mother Doris fell in love with Metin, a police officer of Turkish descent, and decided to move in with him.

But the widower Metin wasn't alone: He has two children, Yağmur (15), his pious Muslim daughter, and Cem (17), his wannabe gangster son. Now Lena must deal with her extended family. She narrates the show by recording videos for her best friend Kati, who studying in the USA on a Student Exchange Program.





-----

Türkisch für Anfänger is a critically acclaimed German television comedy series, which premiered on March 14, 2006 on Das Erste. It was created by Bora Dağtekin and produced by Hoffmann & Voges Ent.

The show focuses on the German-Turkish stepfamily Schneider-Öztürk, their everyday lives and particularly on the eldest daughter Lena, who narrates the show. During the show's run of 52 episodes, topics covered included both typical problems of teenagers and cross-cultural experiences.

Due to popular demand, the crew shot a third season consisting of 16 episodes, which were aired in Fall 2008.





Ripped by KHPP


IMDB:  http://www.imdb.de/title/tt0469009/